<?xml version="1.0" encoding="UTF-8" standalone="no"?>
<svg
   xmlns:dc="http://purl.org/dc/elements/1.1/"
   xmlns:cc="http://creativecommons.org/ns#"
   xmlns:rdf="http://www.w3.org/1999/02/22-rdf-syntax-ns#"
   xmlns:svg="http://www.w3.org/2000/svg"
   xmlns="http://www.w3.org/2000/svg"
   xmlns:sodipodi="http://sodipodi.sourceforge.net/DTD/sodipodi-0.dtd"
   xmlns:inkscape="http://www.inkscape.org/namespaces/inkscape"
   id="livetype"
   width="155.00032"
   height="62.685352"
   viewBox="0 0 155.00032 62.685352"
   version="1.1"
   sodipodi:docname="iosFR.svg"
   inkscape:version="0.92.3 (unknown)">
  <metadata
     id="metadata79">
    <rdf:RDF>
      <cc:Work
         rdf:about="">
        <dc:format>image/svg+xml</dc:format>
        <dc:type
           rdf:resource="http://purl.org/dc/dcmitype/StillImage" />
        <dc:title>Download_on_the_App_Store_Badge_FR_RGB_blk_100517</dc:title>
      </cc:Work>
    </rdf:RDF>
  </metadata>
  <defs
     id="defs77" />
  <sodipodi:namedview
     pagecolor="#ffffff"
     bordercolor="#666666"
     borderopacity="1"
     objecttolerance="10"
     gridtolerance="10"
     guidetolerance="10"
     inkscape:pageopacity="0"
     inkscape:pageshadow="2"
     inkscape:window-width="1366"
     inkscape:window-height="717"
     id="namedview75"
     showgrid="false"
     fit-margin-top="10"
     fit-margin-left="10"
     fit-margin-right="10"
     fit-margin-bottom="10"
     inkscape:zoom="3.1934864"
     inkscape:cx="-10.510499"
     inkscape:cy="27.4949"
     inkscape:window-x="0"
     inkscape:window-y="25"
     inkscape:window-maximized="1"
     inkscape:current-layer="livetype" />
  <title
     id="title2">Download_on_the_App_Store_Badge_FR_RGB_blk_100517</title>
  <g
     id="g72"
     transform="matrix(1.0671303,0,0,1.0671303,10,10.000139)">
    <g
       id="g8">
      <path
         d="M 116.97821,0 H 9.53468 C 9.16798,0 8.80568,0 8.43995,0.002 8.1338,0.004 7.83009,0.00981 7.521,0.0147 a 13.21476,13.21476 0 0 0 -2.0039,0.17671 6.66509,6.66509 0 0 0 -1.90088,0.627 6.43779,6.43779 0 0 0 -1.61865,1.17866 6.25844,6.25844 0 0 0 -1.17822,1.62109 6.60119,6.60119 0 0 0 -0.625,1.90332 12.993,12.993 0 0 0 -0.1792,2.002 C 0.00587,7.83008 0.00489,8.1377 0,8.44434 V 31.5586 c 0.00489,0.3105 0.00587,0.6113 0.01515,0.9219 a 12.99232,12.99232 0 0 0 0.1792,2.0019 6.58756,6.58756 0 0 0 0.625,1.9043 6.20778,6.20778 0 0 0 1.17822,1.6143 6.27445,6.27445 0 0 0 1.61865,1.1787 6.70082,6.70082 0 0 0 1.90088,0.6308 13.45514,13.45514 0 0 0 2.0039,0.1768 C 7.83009,39.9941 8.1338,39.998 8.43995,39.998 8.80567,40 9.168,40 9.53468,40 h 107.44353 c 0.3594,0 0.7246,0 1.084,-0.002 0.3047,0 0.6172,-0.0039 0.9219,-0.0107 a 13.279,13.279 0 0 0 2,-0.1768 6.80432,6.80432 0 0 0 1.9082,-0.6308 6.27742,6.27742 0 0 0 1.6172,-1.1787 6.39482,6.39482 0 0 0 1.1816,-1.6143 6.60413,6.60413 0 0 0 0.6191,-1.9043 13.50641,13.50641 0 0 0 0.1856,-2.0019 c 0.004,-0.3106 0.004,-0.6114 0.004,-0.9219 0.008,-0.3633 0.008,-0.7246 0.008,-1.0938 V 9.53613 c 0,-0.36621 0,-0.72949 -0.008,-1.09179 0,-0.30664 0,-0.61426 -0.004,-0.9209 a 13.50709,13.50709 0 0 0 -0.1856,-2.002 6.6177,6.6177 0 0 0 -0.6191,-1.90332 6.46619,6.46619 0 0 0 -2.7988,-2.7998 6.76753,6.76753 0 0 0 -1.9082,-0.627 13.04394,13.04394 0 0 0 -2,-0.17676 c -0.3047,-0.00488 -0.6172,-0.01074 -0.9219,-0.01269 -0.3594,-0.002 -0.7246,-0.002 -1.084,-0.002 z"
         style="fill:#a6a6a6"
         id="path4"
         inkscape:connector-curvature="0" />
      <path
         d="m 8.44482,39.125 c -0.30467,0 -0.602,-0.0039 -0.90428,-0.0107 A 12.68714,12.68714 0 0 1 5.6714,38.9512 5.88381,5.88381 0 0 1 4.01466,38.4033 5.40573,5.40573 0 0 1 2.61766,37.3867 5.32082,5.32082 0 0 1 1.59715,35.9902 5.72186,5.72186 0 0 1 1.05415,34.333 12.41351,12.41351 0 0 1 0.88765,32.458 C 0.88131,32.2471 0.87301,31.5449 0.87301,31.5449 V 8.44434 c 0,0 0.00884,-0.69141 0.01469,-0.89454 A 12.37138,12.37138 0 0 1 1.05322,5.67773 5.75577,5.75577 0 0 1 1.59669,4.01563 5.37365,5.37365 0 0 1 2.61182,2.61768 5.56562,5.56562 0 0 1 4.01417,1.59521 5.82309,5.82309 0 0 1 5.66749,1.05127 12.58579,12.58579 0 0 1 7.543,0.88721 L 8.44532,0.875 h 109.612 l 0.9131,0.0127 a 12.38493,12.38493 0 0 1 1.8584,0.16259 5.93833,5.93833 0 0 1 1.6709,0.54785 5.59375,5.59375 0 0 1 2.415,2.41993 5.76267,5.76267 0 0 1 0.5352,1.64892 12.995,12.995 0 0 1 0.1738,1.88721 c 0.003,0.2832 0.003,0.5874 0.003,0.89014 0.008,0.375 0.008,0.73193 0.008,1.09179 V 30.4648 c 0,0.3633 0,0.7178 -0.008,1.0752 0,0.3252 0,0.6231 -0.004,0.9297 a 12.73126,12.73126 0 0 1 -0.1709,1.8535 5.739,5.739 0 0 1 -0.54,1.67 5.48029,5.48029 0 0 1 -1.0156,1.3857 5.4129,5.4129 0 0 1 -1.3994,1.0225 5.86168,5.86168 0 0 1 -1.668,0.5498 12.54218,12.54218 0 0 1 -1.8692,0.1631 c -0.2929,0.0068 -0.5996,0.0107 -0.8974,0.0107 l -1.084,0.002 z"
         id="path6"
         inkscape:connector-curvature="0" />
    </g>
    <g
       id="g48">
      <g
         id="_Group_"
         data-name="&lt;Group&gt;">
        <g
           id="_Group_2"
           data-name="&lt;Group&gt;">
          <g
             id="_Group_3"
             data-name="&lt;Group&gt;">
            <path
               id="_Path_"
               data-name="&lt;Path&gt;"
               d="m 24.7718,20.30068 a 4.94881,4.94881 0 0 1 2.35656,-4.15206 5.06566,5.06566 0 0 0 -3.99116,-2.15768 c -1.67924,-0.17626 -3.30719,1.00483 -4.1629,1.00483 -0.87227,0 -2.18977,-0.98733 -3.6085,-0.95814 a 5.31529,5.31529 0 0 0 -4.47292,2.72787 c -1.934,3.34842 -0.49141,8.26947 1.3612,10.97608 0.9269,1.32535 2.01018,2.8058 3.42763,2.7533 1.38706,-0.05753 1.9051,-0.88448 3.5794,-0.88448 1.65876,0 2.14479,0.88448 3.591,0.8511 1.48838,-0.02416 2.42613,-1.33124 3.32051,-2.66914 A 10.962,10.962 0 0 0 27.691,24.69985 4.78205,4.78205 0 0 1 24.7718,20.30068 Z"
               style="fill:#ffffff"
               inkscape:connector-curvature="0" />
            <path
               id="_Path_2"
               data-name="&lt;Path&gt;"
               d="m 22.04017,12.21089 a 4.87248,4.87248 0 0 0 1.11452,-3.49062 4.95746,4.95746 0 0 0 -3.20758,1.65961 4.63634,4.63634 0 0 0 -1.14371,3.36139 4.09905,4.09905 0 0 0 3.23677,-1.53038 z"
               style="fill:#ffffff"
               inkscape:connector-curvature="0" />
          </g>
        </g>
      </g>
      <g
         id="_Group_4"
         data-name="&lt;Group&gt;">
        <g
           id="g45">
          <path
             d="M 35.65528,14.70166 V 9.57813 h -1.877 V 8.73486 h 4.67676 V 9.57812 H 36.582 v 5.12354 z"
             style="fill:#ffffff"
             id="path15"
             inkscape:connector-curvature="0" />
          <path
             d="m 42.76466,13.48584 a 1.828,1.828 0 0 1 -1.95117,1.30273 2.04531,2.04531 0 0 1 -2.08008,-2.32422 2.07685,2.07685 0 0 1 2.07617,-2.35254 c 1.25293,0 2.00879,0.856 2.00879,2.27 v 0.31006 h -3.17969 v 0.0498 a 1.1902,1.1902 0 0 0 1.19922,1.29 1.07934,1.07934 0 0 0 1.07129,-0.5459 z m -3.126,-1.45117 h 2.27444 a 1.08647,1.08647 0 0 0 -1.1084,-1.1665 1.15162,1.15162 0 0 0 -1.16602,1.1665 z M 40.2754,9.4458 41.31349,8.02344 h 1.042 L 41.19337,9.4458 Z"
             style="fill:#ffffff"
             id="path17"
             inkscape:connector-curvature="0" />
          <path
             d="m 44.05274,8.44092 h 0.88867 v 6.26074 h -0.88867 z"
             style="fill:#ffffff"
             id="path19"
             inkscape:connector-curvature="0" />
          <path
             d="m 50.208,13.48584 a 1.828,1.828 0 0 1 -1.95117,1.30273 2.04531,2.04531 0 0 1 -2.08008,-2.32422 2.07685,2.07685 0 0 1 2.07617,-2.35254 c 1.25293,0 2.00879,0.856 2.00879,2.27 v 0.31006 H 47.082 v 0.0498 a 1.1902,1.1902 0 0 0 1.19922,1.29 1.07934,1.07934 0 0 0 1.07129,-0.5459 z m -3.126,-1.45117 h 2.27441 a 1.08647,1.08647 0 0 0 -1.1084,-1.1665 1.15162,1.15162 0 0 0 -1.16601,1.1665 z M 47.71872,9.4458 48.75681,8.02344 h 1.042 L 48.63673,9.4458 Z"
             style="fill:#ffffff"
             id="path21"
             inkscape:connector-curvature="0" />
          <path
             d="m 54.40333,11.67041 a 1.00546,1.00546 0 0 0 -1.06348,-0.76465 c -0.74414,0 -1.19922,0.57031 -1.19922,1.52979 0,0.97607 0.459,1.55908 1.19922,1.55908 a 0.97873,0.97873 0 0 0 1.06348,-0.74023 h 0.86426 a 1.762,1.762 0 0 1 -1.92285,1.53418 2.06791,2.06791 0 0 1 -2.11328,-2.353 2.05305,2.05305 0 0 1 2.1084,-2.32373 1.77731,1.77731 0 0 1 1.92773,1.55859 z"
             style="fill:#ffffff"
             id="path23"
             inkscape:connector-curvature="0" />
          <path
             d="m 56.44728,8.44092 h 0.88086 v 2.48145 h 0.07031 a 1.3856,1.3856 0 0 1 1.373,-0.80664 1.48339,1.48339 0 0 1 1.55078,1.67871 v 2.90723 h -0.88965 v -2.688 c 0,-0.71924 -0.335,-1.0835 -0.96289,-1.0835 a 1.05194,1.05194 0 0 0 -1.13379,1.1416 v 2.62988 h -0.88867 z"
             style="fill:#ffffff"
             id="path25"
             inkscape:connector-curvature="0" />
          <path
             d="m 61.43946,13.42822 c 0,-0.81055 0.60352,-1.27783 1.6748,-1.34424 l 1.21973,-0.07031 V 11.625 c 0,-0.47559 -0.31445,-0.74414 -0.92188,-0.74414 -0.49609,0 -0.83984,0.18213 -0.93848,0.50049 h -0.86035 c 0.09082,-0.77344 0.81836,-1.26953 1.83984,-1.26953 1.12891,0 1.76514,0.562 1.76514,1.51318 v 3.07666 h -0.855 V 14.06885 H 64.293 a 1.515,1.515 0 0 1 -1.35254,0.707 1.36026,1.36026 0 0 1 -1.501,-1.34763 z m 2.89453,-0.38477 V 12.667 l -1.09961,0.07031 c -0.62012,0.0415 -0.90137,0.25244 -0.90137,0.64941 0,0.40527 0.35156,0.64111 0.835,0.64111 A 1.0615,1.0615 0 0 0 64.334,13.04346 Z"
             style="fill:#ffffff"
             id="path27"
             inkscape:connector-curvature="0" />
          <path
             d="m 66.60987,10.19873 h 0.85547 v 0.69043 h 0.06641 a 1.22092,1.22092 0 0 1 1.21582,-0.76514 1.86836,1.86836 0 0 1 0.39648,0.03711 v 0.877 A 2.43442,2.43442 0 0 0 68.64796,10.98442 1.05507,1.05507 0 0 0 67.49855,12.043 v 2.65869 h -0.88867 z"
             style="fill:#ffffff"
             id="path29"
             inkscape:connector-curvature="0" />
          <path
             d="m 69.96144,15.15234 h 0.90918 c 0.0752,0.32666 0.45117,0.5376 1.05078,0.5376 0.74023,0 1.17871,-0.35156 1.17871,-0.94678 V 13.8789 H 73.0337 a 1.51433,1.51433 0 0 1 -1.38965,0.75635 c -1.14941,0 -1.86035,-0.88867 -1.86035,-2.23682 0,-1.373 0.71875,-2.27441 1.86914,-2.27441 a 1.56045,1.56045 0 0 1 1.41406,0.79395 h 0.07031 v -0.71924 h 0.85156 v 4.54 c 0,1.02979 -0.80664,1.68311 -2.08008,1.68311 -1.12499,4e-5 -1.85253,-0.50436 -1.94725,-1.2695 z m 3.15527,-2.7583 c 0,-0.897 -0.46387,-1.47168 -1.2207,-1.47168 -0.76465,0 -1.19434,0.57471 -1.19434,1.47168 0,0.89746 0.42969,1.47217 1.19434,1.47217 0.76172,0 1.2207,-0.57031 1.2207,-1.47221 z"
             style="fill:#ffffff"
             id="path31"
             inkscape:connector-curvature="0" />
          <path
             d="m 79.21241,13.48584 a 1.828,1.828 0 0 1 -1.95117,1.30273 2.04531,2.04531 0 0 1 -2.08008,-2.32422 2.07685,2.07685 0 0 1 2.07617,-2.35254 c 1.25293,0 2.00879,0.856 2.00879,2.27 v 0.31006 h -3.17968 v 0.0498 a 1.1902,1.1902 0 0 0 1.19922,1.29 1.07934,1.07934 0 0 0 1.07129,-0.5459 z m -3.126,-1.45117 h 2.27441 a 1.08647,1.08647 0 0 0 -1.1084,-1.1665 1.15162,1.15162 0 0 0 -1.16598,1.1665 z"
             style="fill:#ffffff"
             id="path33"
             inkscape:connector-curvature="0" />
          <path
             d="M 80.45948,10.19873 H 81.315 v 0.69043 h 0.06641 a 1.22092,1.22092 0 0 1 1.21582,-0.76514 1.86836,1.86836 0 0 1 0.39648,0.03711 v 0.877 A 2.43442,2.43442 0 0 0 82.49762,10.98442 1.05507,1.05507 0 0 0 81.34815,12.043 v 2.65869 h -0.88867 z"
             style="fill:#ffffff"
             id="path35"
             inkscape:connector-curvature="0" />
          <path
             d="m 86.19581,12.44824 c 0,-1.42285 0.73145,-2.32422 1.86914,-2.32422 a 1.484,1.484 0 0 1 1.38086,0.79 h 0.06641 v -2.4731 h 0.88867 v 6.26074 H 89.54933 V 13.99023 H 89.479 a 1.56284,1.56284 0 0 1 -1.41406,0.78564 c -1.1455,1e-5 -1.86913,-0.90136 -1.86913,-2.32763 z m 0.918,0 c 0,0.95508 0.4502,1.52979 1.20313,1.52979 0.749,0 1.21191,-0.583 1.21191,-1.52588 0,-0.93848 -0.46777,-1.52979 -1.21191,-1.52979 -0.74808,0 -1.20316,0.57864 -1.20316,1.52588 z"
             style="fill:#ffffff"
             id="path37"
             inkscape:connector-curvature="0" />
          <path
             d="m 91.60206,13.42822 c 0,-0.81055 0.60352,-1.27783 1.6748,-1.34424 l 1.21973,-0.07031 V 11.625 c 0,-0.47559 -0.31445,-0.74414 -0.92187,-0.74414 -0.49609,0 -0.83984,0.18213 -0.93848,0.50049 h -0.86035 c 0.09082,-0.77344 0.81836,-1.26953 1.83984,-1.26953 1.12891,0 1.76563,0.562 1.76563,1.51318 v 3.07666 h -0.85547 v -0.63281 h -0.07031 a 1.515,1.515 0 0 1 -1.35254,0.707 1.36026,1.36026 0 0 1 -1.50098,-1.34763 z m 2.89453,-0.38477 V 12.667 L 93.397,12.7373 c -0.62012,0.0415 -0.90137,0.25244 -0.90137,0.64941 0,0.40527 0.35156,0.64111 0.835,0.64111 a 1.0615,1.0615 0 0 0 1.16596,-0.98436 z"
             style="fill:#ffffff"
             id="path39"
             inkscape:connector-curvature="0" />
          <path
             d="m 96.773,10.19873 h 0.85547 v 0.71533 h 0.06641 a 1.348,1.348 0 0 1 1.34375,-0.80225 1.46456,1.46456 0 0 1 1.55859,1.6748 v 2.915 h -0.88867 v -2.69184 c 0,-0.72363 -0.31445,-1.0835 -0.97168,-1.0835 a 1.03294,1.03294 0 0 0 -1.0752,1.14111 v 2.63428 H 96.773 Z"
             style="fill:#ffffff"
             id="path41"
             inkscape:connector-curvature="0" />
          <path
             d="m 103.61769,10.11182 c 1.0127,0 1.6748,0.47119 1.76172,1.26514 h -0.85254 c -0.082,-0.33057 -0.40527,-0.5415 -0.90918,-0.5415 -0.49609,0 -0.873,0.23535 -0.873,0.58691 0,0.269 0.22754,0.43848 0.71582,0.55029 l 0.748,0.17334 c 0.85645,0.19873 1.25781,0.56689 1.25781,1.22852 0,0.84766 -0.79,1.41406 -1.86523,1.41406 -1.07129,0 -1.76953,-0.48389 -1.84863,-1.28174 h 0.88965 a 0.91365,0.91365 0 0 0 0.97949,0.562 c 0.55371,0 0.94727,-0.248 0.94727,-0.60791 0,-0.26855 -0.21094,-0.44238 -0.66211,-0.5498 L 103.1216,12.729 c -0.85645,-0.20264 -1.25293,-0.58691 -1.25293,-1.25684 -10e-6,-0.79833 0.73144,-1.36034 1.74902,-1.36034 z"
             style="fill:#ffffff"
             id="path43"
             inkscape:connector-curvature="0" />
        </g>
      </g>
    </g>
    <g
       id="g70">
      <path
         d="m 35.19825,18.06689 h 1.85938 v 12.41846 h -1.85938 z"
         style="fill:#ffffff"
         id="path50"
         inkscape:connector-curvature="0" />
      <path
         d="m 39.29786,22.61084 1.01563,-4.54395 h 1.80664 l -1.23047,4.54395 z"
         style="fill:#ffffff"
         id="path52"
         inkscape:connector-curvature="0" />
      <path
         d="M 49.14649,27.12891 H 44.4131 l -1.13672,3.35645 h -2.00489 l 4.4834,-12.41846 h 2.083 l 4.4834,12.41846 h -2.03905 z m -4.24316,-1.54883 h 3.752 l -1.84961,-5.44775 h -0.05176 z"
         style="fill:#ffffff"
         id="path54"
         inkscape:connector-curvature="0" />
      <path
         d="m 62.00294,25.959 c 0,2.81348 -1.50586,4.62109 -3.77832,4.62109 a 3.0693,3.0693 0 0 1 -2.84863,-1.584 h -0.043 v 4.48438 h -1.8584 V 21.43115 h 1.79883 V 22.937 h 0.03418 a 3.21162,3.21162 0 0 1 2.88281,-1.60059 c 2.29788,2e-5 3.81253,1.81642 3.81253,4.62259 z m -1.91016,0 c 0,-1.8335 -0.94727,-3.03857 -2.39258,-3.03857 -1.41992,0 -2.375,1.23047 -2.375,3.03857 0,1.82422 0.95508,3.0459 2.375,3.0459 1.44532,-2e-5 2.39258,-1.19631 2.39258,-3.0459 z"
         style="fill:#ffffff"
         id="path56"
         inkscape:connector-curvature="0" />
      <path
         d="m 71.9673,25.959 c 0,2.81348 -1.50586,4.62109 -3.77832,4.62109 a 3.0693,3.0693 0 0 1 -2.84863,-1.584 h -0.043 v 4.48438 H 63.43946 V 21.43115 H 65.2378 V 22.937 h 0.0342 a 3.21162,3.21162 0 0 1 2.88281,-1.60059 c 2.29784,2e-5 3.81249,1.81642 3.81249,4.62259 z m -1.91016,0 c 0,-1.8335 -0.94727,-3.03857 -2.39258,-3.03857 -1.41992,0 -2.375,1.23047 -2.375,3.03857 0,1.82422 0.95508,3.0459 2.375,3.0459 1.44531,-2e-5 2.39258,-1.19631 2.39258,-3.0459 z"
         style="fill:#ffffff"
         id="path58"
         inkscape:connector-curvature="0" />
      <path
         d="m 78.55323,27.02539 c 0.1377,1.23145 1.334,2.04 2.96875,2.04 1.56641,0 2.69336,-0.80859 2.69336,-1.91895 0,-0.96387 -0.67969,-1.541 -2.28906,-1.93652 L 80.31691,24.82174 C 78.03663,24.271 76.978,23.20459 76.978,21.47412 c 0,-2.14258 1.86719,-3.61426 4.51855,-3.61426 2.624,0 4.42285,1.47168 4.4834,3.61426 H 84.104 c -0.1123,-1.23926 -1.13672,-1.9873 -2.63379,-1.9873 -1.49707,0 -2.52148,0.75684 -2.52148,1.8584 0,0.87793 0.6543,1.39453 2.25488,1.79 l 1.36816,0.33594 c 2.54785,0.60254 3.60645,1.62646 3.60645,3.44287 0,2.32324 -1.85059,3.77832 -4.79395,3.77832 -2.75391,0 -4.61328,-1.4209 -4.7334,-3.667 z"
         style="fill:#ffffff"
         id="path60"
         inkscape:connector-curvature="0" />
      <path
         d="m 90.19,19.28857 v 2.14258 h 1.72168 v 1.47168 H 90.19 v 4.9917 c 0,0.77539 0.34473,1.13672 1.10156,1.13672 a 5.80752,5.80752 0 0 0 0.61133,-0.043 v 1.46289 a 5.10351,5.10351 0 0 1 -1.03223,0.08594 c -1.833,0 -2.54785,-0.68848 -2.54785,-2.44434 v -5.18991 h -1.31645 v -1.47168 h 1.31641 v -2.14258 z"
         style="fill:#ffffff"
         id="path62"
         inkscape:connector-curvature="0" />
      <path
         d="m 92.90773,25.959 c 0,-2.84912 1.67773,-4.63916 4.29395,-4.63916 2.625,0 4.29492,1.79 4.29492,4.63916 0,2.85645 -1.66113,4.63867 -4.29492,4.63867 -2.63282,-10e-6 -4.29395,-1.78224 -4.29395,-4.63867 z m 6.69531,0 c 0,-1.95459 -0.89551,-3.10791 -2.40137,-3.10791 -1.50586,0 -2.40039,1.16211 -2.40039,3.10791 0,1.96191 0.89453,3.10645 2.40039,3.10645 1.50586,0 2.40133,-1.14455 2.40133,-3.10645 z"
         style="fill:#ffffff"
         id="path64"
         inkscape:connector-curvature="0" />
      <path
         d="m 103.02882,21.43115 h 1.77246 v 1.541 h 0.043 a 2.1594,2.1594 0 0 1 2.17773,-1.63574 2.86616,2.86616 0 0 1 0.63672,0.06934 V 23.144 a 2.59794,2.59794 0 0 0 -0.835,-0.1123 1.8728,1.8728 0 0 0 -1.93652,2.0835 v 5.37012 h -1.8584 z"
         style="fill:#ffffff"
         id="path66"
         inkscape:connector-curvature="0" />
      <path
         d="m 116.22608,27.82617 c -0.25,1.64355 -1.85059,2.77148 -3.89844,2.77148 -2.63379,0 -4.26855,-1.76465 -4.26855,-4.5957 0,-2.84033 1.64355,-4.68213 4.19043,-4.68213 2.50488,0 4.08008,1.7207 4.08008,4.46631 v 0.63672 h -6.39453 v 0.1123 a 2.358,2.358 0 0 0 2.43555,2.56445 2.04834,2.04834 0 0 0 2.09082,-1.27344 z M 109.94386,25.124 h 4.52637 a 2.17744,2.17744 0 0 0 -2.2207,-2.29834 2.29214,2.29214 0 0 0 -2.30567,2.29834 z"
         style="fill:#ffffff"
         id="path68"
         inkscape:connector-curvature="0" />
    </g>
  </g>
</svg>
