<?xml version="1.0" encoding="UTF-8" standalone="no"?>
<svg
   xmlns:dc="http://purl.org/dc/elements/1.1/"
   xmlns:cc="http://creativecommons.org/ns#"
   xmlns:rdf="http://www.w3.org/1999/02/22-rdf-syntax-ns#"
   xmlns:svg="http://www.w3.org/2000/svg"
   xmlns="http://www.w3.org/2000/svg"
   xmlns:sodipodi="http://sodipodi.sourceforge.net/DTD/sodipodi-0.dtd"
   xmlns:inkscape="http://www.inkscape.org/namespaces/inkscape"
   viewBox="0 0 155 60"
   version="1.1"
   id="svg68"
   sodipodi:docname="webFR.svg"
   inkscape:version="0.92.3 (unknown)">
  <metadata
     id="metadata72">
    <rdf:RDF>
      <cc:Work
         rdf:about="">
        <dc:format>image/svg+xml</dc:format>
        <dc:type
           rdf:resource="http://purl.org/dc/dcmitype/StillImage" />
        <dc:title>fr_get</dc:title>
      </cc:Work>
    </rdf:RDF>
  </metadata>
  <sodipodi:namedview
     pagecolor="#ffffff"
     bordercolor="#666666"
     borderopacity="1"
     objecttolerance="10"
     gridtolerance="10"
     guidetolerance="10"
     inkscape:pageopacity="0"
     inkscape:pageshadow="2"
     inkscape:window-width="1366"
     inkscape:window-height="717"
     id="namedview70"
     showgrid="false"
     inkscape:zoom="2.6064516"
     inkscape:cx="53.585996"
     inkscape:cy="48.938169"
     inkscape:window-x="0"
     inkscape:window-y="25"
     inkscape:window-maximized="1"
     inkscape:current-layer="svg68" />
  <defs
     id="defs40">
    <linearGradient
       id="a"
       x1="31.8"
       y1="183.29"
       x2="15.02"
       y2="166.51"
       gradientTransform="matrix(1 0 0 -1 0 202)"
       gradientUnits="userSpaceOnUse">
      <stop
         offset="0"
         stop-color="#00a0ff"
         id="stop2" />
      <stop
         offset=".01"
         stop-color="#00a1ff"
         id="stop4" />
      <stop
         offset=".26"
         stop-color="#00beff"
         id="stop6" />
      <stop
         offset=".51"
         stop-color="#00d2ff"
         id="stop8" />
      <stop
         offset=".76"
         stop-color="#00dfff"
         id="stop10" />
      <stop
         offset="1"
         stop-color="#00e3ff"
         id="stop12" />
    </linearGradient>
    <linearGradient
       id="b"
       x1="43.83"
       y1="172"
       x2="19.64"
       y2="172"
       gradientTransform="matrix(1 0 0 -1 0 202)"
       gradientUnits="userSpaceOnUse">
      <stop
         offset="0"
         stop-color="#ffe000"
         id="stop15" />
      <stop
         offset=".41"
         stop-color="#ffbd00"
         id="stop17" />
      <stop
         offset=".78"
         stop-color="orange"
         id="stop19" />
      <stop
         offset="1"
         stop-color="#ff9c00"
         id="stop21" />
    </linearGradient>
    <linearGradient
       id="c"
       x1="34.83"
       y1="169.7"
       x2="12.07"
       y2="146.95"
       gradientTransform="matrix(1 0 0 -1 0 202)"
       gradientUnits="userSpaceOnUse">
      <stop
         offset="0"
         stop-color="#ff3a44"
         id="stop24" />
      <stop
         offset="1"
         stop-color="#c31162"
         id="stop26" />
    </linearGradient>
    <linearGradient
       id="d"
       x1="17.3"
       y1="191.82"
       x2="27.46"
       y2="181.66"
       gradientTransform="matrix(1 0 0 -1 0 202)"
       gradientUnits="userSpaceOnUse">
      <stop
         offset="0"
         stop-color="#32a071"
         id="stop29" />
      <stop
         offset=".07"
         stop-color="#2da771"
         id="stop31" />
      <stop
         offset=".48"
         stop-color="#15cf74"
         id="stop33" />
      <stop
         offset=".8"
         stop-color="#06e775"
         id="stop35" />
      <stop
         offset="1"
         stop-color="#00f076"
         id="stop37" />
    </linearGradient>
  </defs>
  <title
     id="title42">fr_get</title>
  <path
     fill="none"
     d="M0 0h155v60H0z"
     id="path44" />
  <rect
     x="10"
     y="10"
     width="135"
     height="40"
     rx="5"
     ry="5"
     id="rect46" />
  <path
     d="M140 10.8a4.2 4.2 0 0 1 4.2 4.2v30a4.2 4.2 0 0 1-4.2 4.2H15a4.2 4.2 0 0 1-4.2-4.2V15a4.2 4.2 0 0 1 4.2-4.2h125m0-.8H15a5 5 0 0 0-5 5v30a5 5 0 0 0 5 5h125a5 5 0 0 0 5-5V15a5 5 0 0 0-5-5z"
     fill="#a6a6a6"
     id="path48" />
  <path
     d="M37 34.13l-14.49 8.25a1.67 1.67 0 0 1-2 0l-.07.07.07.07a1.66 1.66 0 0 0 2 0l14.61-8.3z"
     style="isolation:isolate"
     opacity=".2"
     id="path60" />
  <path
     d="M20.44 42.32a2 2 0 0 1-.46-1.4v.15a2 2 0 0 0 .46 1.4l.07-.07zM42 31.3l-5 2.83.09.09L42 31.44A1.75 1.75 0 0 0 43 30a1.86 1.86 0 0 1-1 1.3z"
     style="isolation:isolate"
     opacity=".12"
     id="path62" />
  <g
     aria-label="DISPONIBLE COMME"
     transform="matrix(0.97166529,0,0,0.94771345,4.051825,1.8321654)"
     style="font-style:normal;font-variant:normal;font-weight:bold;font-stretch:normal;font-size:7.78203773px;line-height:1.25;font-family:Dosis;-inkscape-font-specification:'Dosis Bold';letter-spacing:0.00364783px;word-spacing:0px;fill:#000000;fill-opacity:1;stroke:none;stroke-width:0.18239151"
     id="text881">
    <path
       d="m 50.182568,24.130199 h 2.474688 c 1.782087,0 3.003867,-1.073921 3.003867,-2.723713 0,-1.649792 -1.22178,-2.723713 -3.003867,-2.723713 h -2.474688 z m 1.26069,-1.035011 V 19.717784 H 52.595 c 1.081703,0 1.789869,0.645909 1.789869,1.688702 0,1.042793 -0.708166,1.688702 -1.789869,1.688702 z"
       style="font-style:normal;font-variant:normal;font-weight:bold;font-stretch:normal;font-family:Montserrat;-inkscape-font-specification:'Montserrat Bold';fill:#ffffff;stroke-width:0.18239151"
       id="path953"
       inkscape:connector-curvature="0" />
    <path
       d="m 56.615517,24.130199 h 1.26069 v -5.447426 h -1.26069 z"
       style="font-style:normal;font-variant:normal;font-weight:bold;font-stretch:normal;font-family:Montserrat;-inkscape-font-specification:'Montserrat Bold';fill:#ffffff;stroke-width:0.18239151"
       id="path955"
       inkscape:connector-curvature="0" />
    <path
       d="m 60.962515,24.223584 c 1.556408,0 2.311265,-0.778204 2.311265,-1.688702 0,-1.999984 -3.167289,-1.307383 -3.167289,-2.311266 0,-0.342409 0.287935,-0.622563 1.035011,-0.622563 0.482486,0 1.003883,0.140077 1.509715,0.428013 l 0.389102,-0.957191 c -0.505832,-0.319064 -1.206216,-0.482486 -1.891035,-0.482486 -1.548626,0 -2.295701,0.770421 -2.295701,1.696484 0,2.02333 3.167289,1.322946 3.167289,2.342393 0,0.334628 -0.303499,0.583653 -1.050575,0.583653 -0.653691,0 -1.33851,-0.233461 -1.797651,-0.568089 l -0.428012,0.949409 c 0.482487,0.373538 1.354075,0.630345 2.217881,0.630345 z"
       style="font-style:normal;font-variant:normal;font-weight:bold;font-stretch:normal;font-family:Montserrat;-inkscape-font-specification:'Montserrat Bold';fill:#ffffff;stroke-width:0.18239151"
       id="path957"
       inkscape:connector-curvature="0" />
    <path
       d="m 66.50442,18.682773 h -2.357958 v 5.447426 h 1.26069 v -1.501933 h 1.097268 c 1.455241,0 2.365739,-0.754858 2.365739,-1.968855 0,-1.22178 -0.910498,-1.976638 -2.365739,-1.976638 z m -0.07004,2.918264 h -1.027229 v -1.891035 h 1.027229 c 0.770422,0 1.159524,0.350192 1.159524,0.949409 0,0.591434 -0.389102,0.941626 -1.159524,0.941626 z"
       style="font-style:normal;font-variant:normal;font-weight:bold;font-stretch:normal;font-family:Montserrat;-inkscape-font-specification:'Montserrat Bold';fill:#ffffff;stroke-width:0.18239151"
       id="path959"
       inkscape:connector-curvature="0" />
    <path
       d="m 72.487956,24.223584 c 1.712048,0 2.98052,-1.190652 2.98052,-2.817098 0,-1.626446 -1.268472,-2.817097 -2.98052,-2.817097 -1.719831,0 -2.980521,1.198433 -2.980521,2.817097 0,1.618664 1.26069,2.817098 2.980521,2.817098 z m 0,-1.073921 c -0.972755,0 -1.704267,-0.708166 -1.704267,-1.743177 0,-1.035011 0.731512,-1.743176 1.704267,-1.743176 0.972754,0 1.704266,0.708165 1.704266,1.743176 0,1.035011 -0.731512,1.743177 -1.704266,1.743177 z"
       style="font-style:normal;font-variant:normal;font-weight:bold;font-stretch:normal;font-family:Montserrat;-inkscape-font-specification:'Montserrat Bold';fill:#ffffff;stroke-width:0.18239151"
       id="path961"
       inkscape:connector-curvature="0" />
    <path
       d="m 80.170529,18.682773 v 3.307366 L 77.46238,18.682773 h -1.042793 v 5.447426 h 1.245126 v -3.307366 l 2.715931,3.307366 h 1.035011 v -5.447426 z"
       style="font-style:normal;font-variant:normal;font-weight:bold;font-stretch:normal;font-family:Montserrat;-inkscape-font-specification:'Montserrat Bold';fill:#ffffff;stroke-width:0.18239151"
       id="path963"
       inkscape:connector-curvature="0" />
    <path
       d="m 82.715741,24.130199 h 1.26069 v -5.447426 h -1.26069 z"
       style="font-style:normal;font-variant:normal;font-weight:bold;font-stretch:normal;font-family:Montserrat;-inkscape-font-specification:'Montserrat Bold';fill:#ffffff;stroke-width:0.18239151"
       id="path965"
       inkscape:connector-curvature="0" />
    <path
       d="m 89.272837,21.297538 c 0.443576,-0.233461 0.72373,-0.653691 0.72373,-1.198434 0,-0.848242 -0.700384,-1.416331 -2.06224,-1.416331 H 85.27287 v 5.447426 h 2.817098 c 1.431894,0 2.17897,-0.544742 2.17897,-1.486369 0,-0.684819 -0.389102,-1.151741 -0.996101,-1.346292 z m -1.494151,-1.665356 c 0.614781,0 0.949409,0.210115 0.949409,0.638127 0,0.428012 -0.334628,0.645909 -0.949409,0.645909 h -1.252908 v -1.284036 z m 0.217897,3.548609 h -1.470805 v -1.346293 h 1.470805 c 0.653691,0 1.003883,0.217897 1.003883,0.677038 0,0.466922 -0.350192,0.669255 -1.003883,0.669255 z"
       style="font-style:normal;font-variant:normal;font-weight:bold;font-stretch:normal;font-family:Montserrat;-inkscape-font-specification:'Montserrat Bold';fill:#ffffff;stroke-width:0.18239151"
       id="path967"
       inkscape:connector-curvature="0" />
    <path
       d="m 91.234643,24.130199 h 3.992185 V 23.10297 h -2.731495 v -4.420197 h -1.26069 z"
       style="font-style:normal;font-variant:normal;font-weight:bold;font-stretch:normal;font-family:Montserrat;-inkscape-font-specification:'Montserrat Bold';fill:#ffffff;stroke-width:0.18239151"
       id="path969"
       inkscape:connector-curvature="0" />
    <path
       d="m 97.187781,23.118535 v -1.260691 h 2.529162 v -0.980536 h -2.529162 v -1.18287 h 2.863789 v -1.011665 h -4.116698 v 5.447426 h 4.217868 v -1.011664 z"
       style="font-style:normal;font-variant:normal;font-weight:bold;font-stretch:normal;font-family:Montserrat;-inkscape-font-specification:'Montserrat Bold';fill:#ffffff;stroke-width:0.18239151"
       id="path971"
       inkscape:connector-curvature="0" />
    <path
       d="m 105.9816,24.223584 c 0.94941,0 1.7354,-0.34241 2.24901,-0.972755 l -0.80933,-0.747075 c -0.36576,0.428012 -0.8249,0.645909 -1.36964,0.645909 -1.01945,0 -1.74318,-0.715948 -1.74318,-1.743177 0,-1.027229 0.72373,-1.743176 1.74318,-1.743176 0.54474,0 1.00388,0.217897 1.36964,0.638127 l 0.80933,-0.747076 c -0.51361,-0.622563 -1.2996,-0.964972 -2.24123,-0.964972 -1.69648,0 -2.95717,1.175087 -2.95717,2.817097 0,1.64201 1.26069,2.817098 2.94939,2.817098 z"
       style="font-style:normal;font-variant:normal;font-weight:bold;font-stretch:normal;font-family:Montserrat;-inkscape-font-specification:'Montserrat Bold';fill:#ffffff;stroke-width:0.18239151"
       id="path973"
       inkscape:connector-curvature="0" />
    <path
       d="m 111.59452,24.223584 c 1.71205,0 2.98052,-1.190652 2.98052,-2.817098 0,-1.626446 -1.26847,-2.817097 -2.98052,-2.817097 -1.71983,0 -2.98052,1.198433 -2.98052,2.817097 0,1.618664 1.26069,2.817098 2.98052,2.817098 z m 0,-1.073921 c -0.97275,0 -1.70427,-0.708166 -1.70427,-1.743177 0,-1.035011 0.73152,-1.743176 1.70427,-1.743176 0.97276,0 1.70427,0.708165 1.70427,1.743176 0,1.035011 -0.73151,1.743177 -1.70427,1.743177 z"
       style="font-style:normal;font-variant:normal;font-weight:bold;font-stretch:normal;font-family:Montserrat;-inkscape-font-specification:'Montserrat Bold';fill:#ffffff;stroke-width:0.18239151"
       id="path975"
       inkscape:connector-curvature="0" />
    <path
       d="m 121.66618,24.130199 -0.0156,-5.447426 h -1.03501 l -2.00776,3.385186 -2.0389,-3.385186 h -1.04279 v 5.447426 h 1.18287 v -3.198417 l 1.59532,2.622547 h 0.56809 l 1.6031,-2.692585 0.008,3.268455 z"
       style="font-style:normal;font-variant:normal;font-weight:bold;font-stretch:normal;font-family:Montserrat;-inkscape-font-specification:'Montserrat Bold';fill:#ffffff;stroke-width:0.18239151"
       id="path977"
       inkscape:connector-curvature="0" />
    <path
       d="m 129.10228,24.130199 -0.0156,-5.447426 h -1.03501 l -2.00777,3.385186 -2.03889,-3.385186 h -1.0428 v 5.447426 h 1.18287 v -3.198417 l 1.59532,2.622547 h 0.56809 l 1.6031,-2.692585 0.008,3.268455 z"
       style="font-style:normal;font-variant:normal;font-weight:bold;font-stretch:normal;font-family:Montserrat;-inkscape-font-specification:'Montserrat Bold';fill:#ffffff;stroke-width:0.18239151"
       id="path979"
       inkscape:connector-curvature="0" />
    <path
       d="m 131.65127,23.118535 v -1.260691 h 2.52916 v -0.980536 h -2.52916 v -1.18287 h 2.86379 v -1.011665 h -4.1167 v 5.447426 h 4.21786 v -1.011664 z"
       style="font-style:normal;font-variant:normal;font-weight:bold;font-stretch:normal;font-family:Montserrat;-inkscape-font-specification:'Montserrat Bold';fill:#ffffff;stroke-width:0.18239151"
       id="path981"
       inkscape:connector-curvature="0" />
  </g>
  <g
     aria-label="WebApp"
     style="font-style:normal;font-variant:normal;font-weight:bold;font-stretch:normal;font-size:18.94486427px;line-height:1.25;font-family:Dosis;-inkscape-font-specification:'Dosis Bold';letter-spacing:0.00888041px;word-spacing:0px;fill:#000000;fill-opacity:1;stroke:none;stroke-width:0.44402027"
     id="text885"
     transform="matrix(0.95961464,0,0,0.95961464,4.051825,-0.1678346)">
    <path
       d="M 69.106897,28.43036 65.715767,38.565862 62.362526,28.43036 H 60.089142 L 56.660122,38.509028 53.363715,28.43036 h -2.557556 l 4.395208,13.261405 h 2.633336 l 3.334296,-9.81344 3.277462,9.81344 h 2.614391 L 71.456061,28.43036 Z"
       style="font-style:normal;font-variant:normal;font-weight:600;font-stretch:normal;font-family:Montserrat;-inkscape-font-specification:'Montserrat Semi-Bold';fill:#ffffff;stroke-width:0.44402027"
       id="path940"
       inkscape:connector-curvature="0" />
    <path
       d="m 82.014271,36.690321 c 0,-3.163793 -2.159715,-5.228783 -5.115114,-5.228783 -3.012233,0 -5.228782,2.159715 -5.228782,5.171948 0,3.012233 2.197604,5.190893 5.588735,5.190893 1.742927,0 3.163792,-0.568346 4.073146,-1.648203 L 80.06295,38.717421 c -0.719905,0.73885 -1.610314,1.098802 -2.747006,1.098802 -1.761872,0 -2.993288,-0.947243 -3.277461,-2.424942 h 7.937898 c 0.01895,-0.227339 0.03789,-0.511512 0.03789,-0.70096 z m -5.115114,-3.334296 c 1.553479,0 2.671226,1.004077 2.860675,2.462832 h -5.740294 c 0.227338,-1.4777 1.345085,-2.462832 2.879619,-2.462832 z"
       style="font-style:normal;font-variant:normal;font-weight:600;font-stretch:normal;font-family:Montserrat;-inkscape-font-specification:'Montserrat Semi-Bold';fill:#ffffff;stroke-width:0.44402027"
       id="path942"
       inkscape:connector-curvature="0" />
    <path
       d="m 89.887046,31.461538 c -1.288251,0 -2.424943,0.435732 -3.239572,1.345085 v -5.171947 h -2.368108 v 14.057089 h 2.254439 v -1.307196 c 0.795684,0.966188 1.970266,1.43981 3.353241,1.43981 2.955399,0 5.134058,-2.046045 5.134058,-5.190893 0,-3.144847 -2.178659,-5.171948 -5.134058,-5.171948 z m -0.265228,8.33574 c -1.705038,0 -3.012234,-1.231416 -3.012234,-3.163792 0,-1.932376 1.307196,-3.163792 3.012234,-3.163792 1.705038,0 2.993288,1.231416 2.993288,3.163792 0,1.932376 -1.28825,3.163792 -2.993288,3.163792 z"
       style="font-style:normal;font-variant:normal;font-weight:600;font-stretch:normal;font-family:Montserrat;-inkscape-font-specification:'Montserrat Semi-Bold';fill:#ffffff;stroke-width:0.44402027"
       id="path944"
       inkscape:connector-curvature="0" />
    <path
       d="m 107.13427,41.691765 h 2.5765 L 103.7242,28.43036 h -2.42495 l -5.967628,13.261405 h 2.538611 l 1.307196,-3.069068 h 6.630701 z m -7.12327,-5.001444 2.48178,-5.797129 2.50072,5.797129 z"
       style="font-style:normal;font-variant:normal;font-weight:600;font-stretch:normal;font-family:Montserrat;-inkscape-font-specification:'Montserrat Semi-Bold';fill:#ffffff;stroke-width:0.44402027"
       id="path946"
       inkscape:connector-curvature="0" />
    <path
       d="m 116.76803,31.461538 c -1.38297,0 -2.55756,0.473622 -3.35324,1.43981 v -1.326141 h -2.25444 v 13.791862 h 2.36811 v -4.90672 c 0.81463,0.928298 1.95132,1.36403 3.23957,1.36403 2.9554,0 5.13406,-2.046045 5.13406,-5.190893 0,-3.125903 -2.17866,-5.171948 -5.13406,-5.171948 z m -0.26523,8.33574 c -1.70503,0 -3.01223,-1.231416 -3.01223,-3.163792 0,-1.932376 1.3072,-3.163792 3.01223,-3.163792 1.70504,0 2.99329,1.231416 2.99329,3.163792 0,1.932376 -1.28825,3.163792 -2.99329,3.163792 z"
       style="font-style:normal;font-variant:normal;font-weight:600;font-stretch:normal;font-family:Montserrat;-inkscape-font-specification:'Montserrat Semi-Bold';fill:#ffffff;stroke-width:0.44402027"
       id="path948"
       inkscape:connector-curvature="0" />
    <path
       d="m 129.76451,31.461538 c -1.38298,0 -2.55756,0.473622 -3.35324,1.43981 v -1.326141 h -2.25444 v 13.791862 h 2.3681 v -4.90672 c 0.81463,0.928298 1.95133,1.36403 3.23958,1.36403 2.9554,0 5.13405,-2.046045 5.13405,-5.190893 0,-3.125903 -2.17865,-5.171948 -5.13405,-5.171948 z m -0.26523,8.33574 c -1.70504,0 -3.01224,-1.231416 -3.01224,-3.163792 0,-1.932376 1.3072,-3.163792 3.01224,-3.163792 1.70504,0 2.99329,1.231416 2.99329,3.163792 0,1.932376 -1.28825,3.163792 -2.99329,3.163792 z"
       style="font-style:normal;font-variant:normal;font-weight:600;font-stretch:normal;font-family:Montserrat;-inkscape-font-specification:'Montserrat Semi-Bold';fill:#ffffff;stroke-width:0.44402027"
       id="path950"
       inkscape:connector-curvature="0" />
  </g>
  <g
     id="g938"
     transform="matrix(0.04636304,0,0,0.04636304,21.136312,17.854727)">
    <path
       id="path891"
       d="m 173.85547,294.10547 h 162.21875 v 163.8125 H 173.85547 Z m 0,0"
       inkscape:connector-curvature="0"
       style="fill:#86aebc" />
    <path
       id="path893"
       d="m 253.99609,294.10547 h 82.07813 v 163.8125 h -82.07813 z m 0,0"
       inkscape:connector-curvature="0"
       style="fill:#9ebecc" />
    <path
       id="path895"
       d="M 496.94141,383.28906 H 12.988281 C 6.121094,383.28906 0.5,377.66797 0.5,370.79687 V 12.488281 C 0.5,5.621094 6.121094,0 12.988281,0 H 496.94141 c 6.86718,0 12.48828,5.621094 12.48828,12.488281 V 370.79687 c 0,6.8711 -5.6211,12.49219 -12.48828,12.49219 z m 0,0"
       inkscape:connector-curvature="0"
       style="fill:#c1d2d9" />
    <path
       id="path897"
       d="M 476.125,42.105469 V 341.18359 c 0,4.85938 -3.94141,8.79297 -8.80469,8.79297 H 42.609375 c -4.859375,0 -8.804687,-3.93359 -8.804687,-8.79297 V 42.105469 c 0,-4.859375 3.945312,-8.792969 8.804687,-8.792969 H 467.32031 c 4.86328,0 8.80469,3.933594 8.80469,8.792969 z m 0,0"
       inkscape:connector-curvature="0"
       style="fill:#fff5f5" />
    <path
       id="path899"
       d="m 428.78125,500.03125 c 0,3.30859 -1.34375,6.29687 -3.50781,8.46094 C 423.10937,510.65625 420.12109,512 416.8125,512 H 93.121094 c -6.609375,0 -11.972656,-5.35938 -11.972656,-11.96875 0,-17.10156 6.933593,-32.57813 18.144531,-43.78906 C 110.5,445.03516 125.97656,438.10156 143.07813,438.10156 h 223.77343 c 26.70703,0 49.46094,16.90235 58.15235,40.59375 2.44531,6.64844 3.77734,13.83985 3.77734,21.33594 z m 0,0"
       inkscape:connector-curvature="0"
       style="fill:#9ebecc" />
    <path
       id="path901"
       d="M 425.00391,478.69531 H 154.52734 c -6.60937,0 -11.96875,-5.36328 -11.96875,-11.96875 0,-10.32812 2.52735,-20.07031 7.00391,-28.625 h 217.28906 c 26.70703,0 49.46094,16.90235 58.15235,40.59375 z m 0,0"
       inkscape:connector-curvature="0"
       style="fill:#dfeaef" />
    <path
       id="path903"
       d="M 61.421875,62.332031 H 303.88281 V 252.83984 H 61.421875 Z m 0,0"
       inkscape:connector-curvature="0"
       style="fill:#40c1fa" />
    <path
       id="path905"
       d="M 303.88281,291.86719 H 61.421875 c -4.3125,0 -7.804687,-3.49219 -7.804687,-7.80469 0,-4.3125 3.492187,-7.80469 7.804687,-7.80469 H 303.88281 c 4.3125,0 7.80469,3.49219 7.80469,7.80469 0,4.3125 -3.49219,7.80469 -7.80469,7.80469 z m 0,0"
       inkscape:connector-curvature="0"
       style="fill:#057aad" />
    <path
       id="path907"
       d="M 303.88281,320.66406 H 61.421875 c -4.3125,0 -7.804687,-3.49219 -7.804687,-7.80469 0,-4.3125 3.492187,-7.80468 7.804687,-7.80468 H 303.88281 c 4.3125,0 7.80469,3.49218 7.80469,7.80468 0,4.3125 -3.49219,7.80469 -7.80469,7.80469 z m 0,0"
       inkscape:connector-curvature="0"
       style="fill:#057aad" />
    <path
       id="path909"
       d="M 335.73047,143.75781 V 62.761719 c 0,-1.425781 1.15625,-2.582031 2.58203,-2.582031 h 104.43359 c 1.42578,0 2.58203,1.15625 2.58203,2.582031 v 80.996091 z m 0,0"
       inkscape:connector-curvature="0"
       style="fill:#40c1fa" />
    <path
       id="path911"
       d="M 335.73047,143.54687 H 445.32812 V 227.125 H 335.73047 Z m 0,0"
       inkscape:connector-curvature="0"
       style="fill:#93dcfc" />
    <path
       id="path913"
       d="m 335.73047,307.91016 v -80.99219 h 109.59765 v 80.99219 c 0,1.42578 -1.15625,2.58593 -2.58203,2.58593 H 338.3125 c -1.42578,0 -2.58203,-1.15625 -2.58203,-2.58593 z m 0,0"
       inkscape:connector-curvature="0"
       style="fill:#40c1fa" />
    <path
       id="path915"
       d="m 224.09766,223.33984 14.30859,-14.30859 9.93359,9.93359 c 6.5586,6.5586 17.28907,6.5586 23.84375,0 6.5586,-6.55468 6.5586,-17.28906 0,-23.84375 L 262.25,185.1875 276.55859,170.87891 c 3.79297,-3.79297 2.0586,-10.26954 -3.125,-11.65625 l -71.66406,-19.20313 c -5.17969,-1.38672 -9.91797,3.35156 -8.53125,8.53516 l 19.20313,71.66406 c 1.38671,5.17969 7.86328,6.91406 11.65625,3.12109 z m 0,0"
       inkscape:connector-curvature="0"
       style="fill:#554640" />
  </g>
</svg>
